<svg id="visual" viewBox="0 0 900 250" width="900" height="250" xmlns="http://www.w3.org/2000/svg" xmlns:xlink="http://www.w3.org/1999/xlink" version="1.1"><rect x="0" y="0" width="900" height="250" fill="#000000"></rect><path d="M0 47L11.5 58.2C23 69.3 46 91.7 69 94.7C92 97.7 115 81.3 138.2 67.3C161.3 53.3 184.7 41.7 207.8 37.7C231 33.7 254 37.3 277 37.5C300 37.7 323 34.3 346 38.5C369 42.7 392 54.3 415.2 56C438.3 57.7 461.7 49.3 484.8 57C508 64.7 531 88.3 554 88.8C577 89.3 600 66.7 623 67C646 67.3 669 90.7 692.2 100.8C715.3 111 738.7 108 761.8 96.2C785 84.3 808 63.7 831 53.2C854 42.7 877 42.3 888.5 42.2L900 42L900 251L888.5 251C877 251 854 251 831 251C808 251 785 251 761.8 251C738.7 251 715.3 251 692.2 251C669 251 646 251 623 251C600 251 577 251 554 251C531 251 508 251 484.8 251C461.7 251 438.3 251 415.2 251C392 251 369 251 346 251C323 251 300 251 277 251C254 251 231 251 207.8 251C184.7 251 161.3 251 138.2 251C115 251 92 251 69 251C46 251 23 251 11.5 251L0 251Z" fill="#0a0a0a"></path><path d="M0 132L11.5 131C23 130 46 128 69 129.7C92 131.3 115 136.7 138.2 130.2C161.3 123.7 184.7 105.3 207.8 95.5C231 85.7 254 84.3 277 95.2C300 106 323 129 346 132.2C369 135.3 392 118.7 415.2 111.2C438.3 103.7 461.7 105.3 484.8 110C508 114.7 531 122.3 554 125C577 127.7 600 125.3 623 127C646 128.7 669 134.3 692.2 133.2C715.3 132 738.7 124 761.8 124.7C785 125.3 808 134.7 831 130.8C854 127 877 110 888.5 101.5L900 93L900 251L888.5 251C877 251 854 251 831 251C808 251 785 251 761.8 251C738.7 251 715.3 251 692.2 251C669 251 646 251 623 251C600 251 577 251 554 251C531 251 508 251 484.8 251C461.7 251 438.3 251 415.2 251C392 251 369 251 346 251C323 251 300 251 277 251C254 251 231 251 207.8 251C184.7 251 161.3 251 138.2 251C115 251 92 251 69 251C46 251 23 251 11.5 251L0 251Z" fill="#101010"></path><path d="M0 177L11.5 168.3C23 159.7 46 142.3 69 140.5C92 138.7 115 152.3 138.2 156.2C161.3 160 184.7 154 207.8 148.3C231 142.7 254 137.3 277 142.3C300 147.3 323 162.7 346 170.7C369 178.7 392 179.3 415.2 180.3C438.3 181.3 461.7 182.7 484.8 182.8C508 183 531 182 554 178.2C577 174.3 600 167.7 623 157.3C646 147 669 133 692.2 128C715.3 123 738.7 127 761.8 132.8C785 138.7 808 146.3 831 155.7C854 165 877 176 888.5 181.5L900 187L900 251L888.5 251C877 251 854 251 831 251C808 251 785 251 761.8 251C738.7 251 715.3 251 692.2 251C669 251 646 251 623 251C600 251 577 251 554 251C531 251 508 251 484.8 251C461.7 251 438.3 251 415.2 251C392 251 369 251 346 251C323 251 300 251 277 251C254 251 231 251 207.8 251C184.7 251 161.3 251 138.2 251C115 251 92 251 69 251C46 251 23 251 11.5 251L0 251Z" fill="#161616"></path><path d="M0 189L11.5 184C23 179 46 169 69 164.7C92 160.3 115 161.7 138.2 167.5C161.3 173.3 184.7 183.7 207.8 184.7C231 185.7 254 177.3 277 175.7C300 174 323 179 346 188.2C369 197.3 392 210.7 415.2 212.3C438.3 214 461.7 204 484.8 199.8C508 195.7 531 197.3 554 204C577 210.7 600 222.3 623 220.3C646 218.3 669 202.7 692.2 202.2C715.3 201.7 738.7 216.3 761.8 218.3C785 220.3 808 209.7 831 197.7C854 185.7 877 172.3 888.5 165.7L900 159L900 251L888.5 251C877 251 854 251 831 251C808 251 785 251 761.8 251C738.7 251 715.3 251 692.2 251C669 251 646 251 623 251C600 251 577 251 554 251C531 251 508 251 484.8 251C461.7 251 438.3 251 415.2 251C392 251 369 251 346 251C323 251 300 251 277 251C254 251 231 251 207.8 251C184.7 251 161.3 251 138.2 251C115 251 92 251 69 251C46 251 23 251 11.5 251L0 251Z" fill="#1a1a1a"></path></svg>